<?xml version="1.0" encoding="UTF-8" standalone="no"?>
<svg
   xmlns:dc="http://purl.org/dc/elements/1.1/"
   xmlns:cc="http://creativecommons.org/ns#"
   xmlns:rdf="http://www.w3.org/1999/02/22-rdf-syntax-ns#"
   xmlns:svg="http://www.w3.org/2000/svg"
   xmlns="http://www.w3.org/2000/svg"
   viewBox="0 0 603.21332 700.50665"
   height="700.50665"
   width="603.21332"
   xml:space="preserve"
   id="svg2"
   version="1.1"><metadata
     id="metadata8"><rdf:RDF><cc:Work
         rdf:about=""><dc:format>image/svg+xml</dc:format><dc:type
           rdf:resource="http://purl.org/dc/dcmitype/StillImage" /></cc:Work></rdf:RDF></metadata><defs
     id="defs6" /><g
     transform="matrix(1.3333333,0,0,-1.3333333,0,757.50667)"
     id="g10"><g
       transform="scale(0.1)"
       id="g12"><path
         id="path64"
         style="fill:#5f6062;fill-opacity:1;fill-rule:evenodd;stroke:none"
         d="m 2502.31,548.879 c 1050.85,0 1907.89,447.941 1907.89,997.181 0,549.23 -857.04,997.17 -1907.89,997.17 -1050.85,0 -1907.908,-447.94 -1907.908,-997.17 0,-549.24 857.058,-997.181 1907.908,-997.181" /><path
         id="path66"
         style="fill:#b5b88e;fill-opacity:1;fill-rule:evenodd;stroke:none"
         d="m 3047.41,4286.25 c 382.35,310.66 716.19,367.73 976.4,265.68 167.26,-65.61 294.73,-193.02 379.91,-360.61 73.56,-144.75 114.37,-321.79 119.79,-512.74 14.83,-524.78 -243.79,-1184.09 -836.44,-1548.91 l -271.54,441.75 c 418.86,257.87 601.72,722.99 591.25,1092.98 -3.26,114.29 -25.43,215.84 -65.06,293.87 -28.06,55.16 -64.06,94.78 -106.35,111.36 -93.96,36.84 -246.11,-9.45 -461.69,-184.6 l -326.27,401.22" /><path
         id="path68"
         style="fill:#a3a77f;fill-opacity:1;fill-rule:evenodd;stroke:none"
         d="m 3442.75,2588.78 c 399.54,260.94 574.23,713.77 564.03,1075.62 -3.26,114.29 -25.43,215.84 -65.06,293.87 -28.06,55.16 -64.06,94.78 -106.35,111.36 l -2.97,1.1 c 6.82,0.71 13.61,1.38 20.54,1.9 554.52,40.82 429.19,-747.62 302.68,-1072.52 -44.56,-114.44 -91.22,-202.29 -158.55,-304.51 -201.4,-258.97 -412.44,-257.65 -554.32,-106.82" /><path
         id="path70"
         style="fill:#dde1b5;fill-opacity:1;fill-rule:evenodd;stroke:none"
         d="m 557.691,4671.16 c 925.279,0 1850.579,0 2775.839,0 71.44,-1153.19 983.13,-2597.12 214.29,-3459.58 -688.13,-771.932 -2489.07,-653.67 -3204.437,0 -852.922,779.39 142.879,2306.39 214.308,3459.58" /><path
         id="path72"
         style="fill:#cdd19b;fill-opacity:1;fill-rule:evenodd;stroke:none"
         d="M 865.973,4671.16 H 3333.53 c 71.44,-1153.19 983.13,-2597.12 214.29,-3459.58 -627.47,-703.9 -2180.1,-667.541 -2991.316,-160.02 692.946,138.21 1007.596,55.9 1734.196,380.76 734.83,328.49 766.41,882.11 625.82,1599.08 -127.77,651.34 -135.77,855.86 -847.25,888.09 -568.64,20.15 -674.69,90.23 -859.06,-448.78 -202.09,-515.19 -583.491,-633.29 -672.476,-20.68 -23.425,352.47 314.161,-258.89 318.735,735.04 1.265,274.97 -12.891,416.33 9.504,486.09" /><path
         id="path74"
         style="fill:#f39c0f;fill-opacity:1;fill-rule:evenodd;stroke:none"
         d="M 683.723,4532.95 C 606.055,3887.96 301.344,3334.96 191.625,2698.34 -75.9844,889.57 3981.46,791.148 3660.7,2651.49 c -96.78,578.07 -381.64,1273.72 -453.35,1881.46 -841.2,0 -1682.43,0 -2523.627,0" /><path
         id="path76"
         style="fill:#df8c16;fill-opacity:1;fill-rule:evenodd;stroke:none"
         d="m 1952.22,1298.97 c 938.74,-16.11 1868.5,424.35 1708.48,1352.52 -96.78,578.07 -381.64,1273.72 -453.35,1881.46 H 853.207 c -0.184,-81.14 3.977,-193.37 3.262,-347.88 -4.574,-993.93 -342.16,-382.57 -318.735,-735.04 88.985,-612.61 470.386,-494.51 672.476,20.68 184.37,539.01 290.42,468.93 859.06,448.78 711.48,-32.23 719.48,-236.75 847.25,-888.09 140.59,-716.97 109.01,-1270.59 -625.82,-1599.08 -123.44,-55.18 -234.95,-98.59 -338.48,-133.35" /><path
         id="path78"
         style="fill:#f9e4b3;fill-opacity:1;fill-rule:evenodd;stroke:none"
         d="m 2419.37,4173.65 c -425.03,-239.35 -554.15,137.46 -912.54,68.68 -88.72,-17.04 -130.23,-51.01 -198.29,-105.49 C 1002.75,3852.71 1076.13,2813.97 685.688,2980.07 263.047,3253.1 189.102,4603.66 373.422,5040.34 c 184.676,376.73 522.519,353.23 870.548,486.34 655.58,250.72 1082.51,165.95 1730.08,-36.97 283.52,-88.84 399.65,-219.19 560.31,-463.35 43.94,-68.87 78.33,-129.86 115.87,-202.34 105.44,-215.87 97.33,-465.84 -107.9,-622.38 -268.33,-169.23 -238.22,256.22 -567.13,248.46 -146.08,-3.44 -419.56,-195.71 -555.83,-276.45" /><path
         id="path80"
         style="fill:#ead193;fill-opacity:1;fill-rule:evenodd;stroke:none"
         d="m 2419.37,4173.65 c -425.03,-239.35 -554.15,137.46 -912.54,68.68 -88.72,-17.04 -130.23,-51.01 -198.29,-105.49 -305.79,-284.13 -232.41,-1322.87 -622.852,-1156.77 -84.95,54.89 -155.786,153.34 -213.286,279.1 77.891,12.41 157.356,39.23 238.578,84.17 184.098,124.23 237.04,332.43 317.77,531.9 l 30.72,71.29 c 357.79,830.58 735.25,419.29 1354.64,540.63 216.21,43.19 218.67,53.86 407.59,150.69 398.53,204.26 567.7,-93 752.49,6.93 108.71,58.77 31.62,183.88 -2.51,321.18 27.56,-46.11 52.28,-91.21 78.55,-141.94 105.44,-215.87 97.33,-465.84 -107.9,-622.38 -268.33,-169.23 -238.22,256.22 -567.13,248.46 -146.08,-3.44 -419.56,-195.71 -555.83,-276.45" /><path
         id="path82"
         style="fill:#df8c16;fill-opacity:1;fill-rule:evenodd;stroke:none"
         d="m 1955.73,1464.94 c 830.45,0 1507.72,338.65 1507.72,753.85 0,415.21 -677.27,753.86 -1507.72,753.86 -830.43,0 -1507.722,-338.65 -1507.722,-753.86 0,-415.2 677.292,-753.85 1507.722,-753.85" /><path
         id="path84"
         style="fill:#cc801a;fill-opacity:1;fill-rule:evenodd;stroke:none"
         d="m 2958.57,2781.66 c 74.6,-549.56 -6.13,-986.61 -525.87,-1278.18 598.9,99.79 1030.75,382.32 1030.75,715.31 0,223.83 -195.15,424.79 -504.88,562.87" /><path
         id="path86"
         style="fill:#fab40a;fill-opacity:1;fill-rule:evenodd;stroke:none"
         d="m 327.438,2806.32 c -117.735,-293.6 172.32,-683.23 422.335,-840.77 479.107,-301.89 1110.857,-275.73 1496.587,171.86 275.93,337.67 496.47,853.17 248.73,1268.7 -142.7,239.34 -477.7,300.44 -733.63,278.54 -456.55,-39.11 20.98,-866.74 -1093.628,-821.49 -141.285,10.12 -234.16,40.48 -340.394,-56.84" /><path
         id="path88"
         style="fill:#f39c0f;fill-opacity:1;fill-rule:evenodd;stroke:none"
         d="m 1955.7,2972.65 c 229.3,0 446.62,-25.64 641.2,-71.42 -30.84,-278.79 -180.13,-555.24 -350.54,-763.82 C 1860.63,1689.82 1228.88,1663.66 749.773,1965.55 646.078,2030.89 535.523,2136.16 450,2257.94 c 40.73,398.14 699.29,714.71 1505.7,714.71" /><path
         id="path90"
         style="fill:#fef3d8;fill-opacity:1;fill-rule:evenodd;stroke:none"
         d="m 2715.81,4980.71 c 151.23,145.4 -300.24,417.45 -419.66,463.08 -410.51,137.75 -702.9,-79.31 -1101.97,-188.43 -187.86,-51.36 -539.61,-96.05 -637.578,-274.57 -106.512,-194.1 32.753,-594.86 49.328,-824.69 24.058,-333.73 156.664,-132.31 175.121,86.69 16.976,201.38 -45.856,517.18 212.355,551.38 312.574,41.39 494.534,28.95 823.964,122.06 370.15,104.61 349.49,37.46 704.6,25.97 78.24,-2.54 127.7,-3.99 193.84,38.51" /></g></g></svg>