<?xml version="1.0" standalone="no"?>
<!DOCTYPE svg PUBLIC "-//W3C//DTD SVG 20010904//EN"
 "http://www.w3.org/TR/2001/REC-SVG-20010904/DTD/svg10.dtd">
<svg version="1.0" xmlns="http://www.w3.org/2000/svg"
 width="701.000000pt" height="701.000000pt" viewBox="0 0 701.000000 701.000000"
 preserveAspectRatio="xMidYMid meet">
<metadata>
Created by potrace 1.11, written by Peter Selinger 2001-2013
</metadata>
<g transform="translate(0.000000,701.000000) scale(0.100000,-0.100000)"
fill="#000000" stroke="none">
<path d="M2969 7006 c-2 -2 -29 -6 -59 -9 -71 -8 -185 -24 -185 -27 0 -1 -13
-3 -30 -5 -33 -5 -201 -43 -225 -52 -8 -3 -20 -7 -27 -9 -6 -1 -58 -17 -115
-35 -57 -18 -105 -33 -108 -34 -3 -1 -18 -7 -35 -14 -37 -16 -259 -90 -283
-95 -9 -1 -24 -5 -32 -8 -8 -3 -53 -16 -100 -27 -116 -30 -314 -94 -318 -103
-2 -5 -10 -8 -19 -8 -21 0 -138 -65 -200 -111 -62 -46 -87 -70 -139 -135 -21
-27 -41 -51 -44 -54 -3 -3 -11 -15 -17 -27 -7 -13 -19 -33 -25 -45 -7 -13 -19
-31 -27 -40 -8 -10 -11 -18 -8 -18 3 0 -1 -16 -9 -36 -26 -63 -72 -266 -80
-349 -2 -22 -5 -50 -8 -62 -19 -89 -27 -589 -13 -778 18 -220 26 -295 42 -385
2 -14 7 -41 9 -60 3 -19 11 -62 17 -95 6 -33 11 -64 11 -70 1 -8 -28 -111 -48
-175 -3 -8 -6 -17 -6 -20 -1 -3 -8 -25 -16 -50 -21 -69 -64 -214 -66 -225 -1
-5 -17 -57 -34 -115 -18 -58 -37 -121 -42 -140 -5 -19 -19 -69 -30 -110 -12
-41 -23 -82 -25 -90 -2 -8 -22 -87 -44 -175 -36 -146 -64 -271 -78 -350 -3
-16 -6 -34 -8 -40 -2 -11 -12 -62 -20 -110 -3 -16 -8 -49 -10 -71 -2 -23 -7
-55 -9 -70 -20 -107 -28 -525 -13 -619 3 -22 9 -65 13 -95 3 -30 8 -58 11 -63
2 -4 6 -19 9 -33 16 -91 53 -193 109 -309 67 -137 78 -154 176 -274 203 -249
587 -485 1029 -634 121 -41 251 -79 262 -77 2 0 26 -6 53 -14 28 -7 79 -19
115 -26 36 -7 70 -16 75 -21 6 -4 57 -21 115 -39 58 -17 112 -34 120 -37 27
-11 256 -68 305 -77 17 -3 41 -8 55 -11 61 -12 185 -33 250 -41 251 -31 343
-37 625 -37 218 -1 310 3 475 19 126 11 242 28 410 58 14 2 32 7 40 10 8 3 32
8 54 11 21 3 41 7 45 9 3 2 22 7 41 10 19 3 76 17 125 32 50 14 97 28 105 30
22 5 227 78 285 102 59 23 247 114 290 140 105 62 131 77 140 84 6 4 39 29 75
55 203 149 348 323 417 502 14 36 26 75 28 86 1 11 6 28 10 38 10 24 12 211 2
262 -17 92 -57 193 -115 292 -49 84 -169 213 -277 299 -44 35 -87 71 -96 79
-9 8 -19 15 -22 15 -4 0 -33 18 -65 39 -31 22 -78 49 -104 62 -43 20 -62 39
-40 39 17 0 225 201 295 285 27 33 53 62 56 65 21 16 181 255 181 269 0 5 4
11 9 13 10 4 133 247 152 301 7 20 16 37 19 37 3 0 6 8 7 18 1 9 7 31 14 47 7
17 13 32 14 35 1 3 4 12 8 20 5 13 53 173 63 210 2 8 6 33 10 55 3 22 7 42 9
45 2 3 6 24 9 46 4 22 8 51 11 64 26 136 27 553 1 630 -3 8 -7 33 -10 55 -13
97 -56 233 -107 342 -22 45 -39 86 -39 92 0 5 -3 11 -7 13 -5 2 -25 29 -46 61
-174 267 -444 415 -764 421 -39 1 -74 4 -78 7 -3 4 -8 21 -10 40 -7 48 -9 57
-29 124 -19 65 -101 235 -146 300 -14 22 -29 47 -32 55 -7 19 -170 251 -206
293 -56 66 -155 158 -215 201 -121 86 -272 150 -537 226 -41 12 -97 28 -125
37 -72 22 -315 83 -350 88 -16 3 -43 8 -60 12 -16 4 -34 8 -40 8 -5 1 -23 4
-40 8 -26 6 -72 13 -140 23 -11 1 -20 3 -20 4 0 7 -519 23 -526 16z m2615
-2142 c15 -3 37 -13 49 -23 46 -37 77 -69 77 -80 0 -6 5 -11 10 -11 6 0 10 -9
10 -20 0 -11 4 -20 8 -20 8 0 55 -122 58 -150 1 -8 7 -37 14 -65 26 -103 18
-364 -15 -535 -9 -47 -13 -65 -15 -65 -1 0 -3 -9 -4 -20 -2 -11 -20 -69 -40
-130 -41 -119 -124 -287 -200 -404 -51 -77 -58 -78 -69 -16 -9 46 -14 67 -31
123 -8 29 -13 52 -10 52 3 0 0 8 -5 18 -6 11 -12 30 -15 43 -11 48 -60 232
-82 304 -9 28 -17 59 -19 70 -2 11 -18 67 -35 125 -16 58 -32 114 -35 125 -2
11 -9 36 -15 55 -6 19 -13 42 -15 50 -2 8 -13 49 -24 90 -45 164 -84 321 -80
323 2 1 18 11 34 23 97 67 236 130 310 141 22 3 41 7 43 8 4 4 55 -2 96 -11z"/>
</g>
</svg>
